<svg xmlns="http://www.w3.org/2000/svg" viewBox="0 0 900 620" role="img" aria-label="AAAI CAG translational correction paper preview">
  <rect width="900" height="620" fill="#f7faf9"/>
  <rect x="78" y="52" width="744" height="516" rx="14" fill="#fff" stroke="#d9e1de"/>
  <text x="450" y="112" text-anchor="middle" font-family="Georgia, serif" font-size="30" font-weight="700" fill="#18211f">Automatic Translational Correction</text>
  <text x="450" y="149" text-anchor="middle" font-family="Arial, sans-serif" font-size="19" fill="#5c6863">Multi-View Coronary Angiography Based on Auto-Annotation</text>
  <text x="450" y="184" text-anchor="middle" font-family="Arial, sans-serif" font-size="16" fill="#0f766e">AAAI 2026 · DOI: 10.1609/aaai.v40i4.37253</text>
  <g transform="translate(128 246)" font-family="Arial, sans-serif">
    <rect width="176" height="128" rx="10" fill="#10201d"/>
    <path d="M26 92c42-39 80-34 126-8M32 60c52 10 76 23 120 10" stroke="#a7f3d0" stroke-width="5" fill="none"/>
    <text x="88" y="162" text-anchor="middle" font-size="16" fill="#5c6863">view A</text>
    <path d="M218 62h150" stroke="#8aa39b" stroke-width="5"/>
    <path d="M360 50l24 12-24 12" fill="#8aa39b"/>
    <rect x="422" width="176" height="128" rx="10" fill="#f1f5f4" stroke="#d9e1de"/>
    <path d="M448 84c42-39 80-34 126-8M454 52c52 10 76 23 120 10" stroke="#d85645" stroke-width="5" fill="none"/>
    <text x="510" y="162" text-anchor="middle" font-size="16" fill="#5c6863">corrected view B</text>
  </g>
  <g font-family="Arial, sans-serif">
    <rect x="166" y="452" width="568" height="58" rx="10" fill="#e8f5f2"/>
    <text x="450" y="488" text-anchor="middle" font-size="19" font-weight="800" fill="#0a4f4b">annotation-free high-fidelity matching pairs</text>
  </g>
</svg>
