<svg xmlns="http://www.w3.org/2000/svg" viewBox="0 0 1200 675" role="img" aria-label="OT-Bridge Editor method overview">
  <defs>
    <linearGradient id="bg" x1="0" y1="0" x2="1" y2="1">
      <stop offset="0" stop-color="#e8f5f2"/>
      <stop offset="1" stop-color="#f8faf9"/>
    </linearGradient>
    <filter id="shadow" x="-20%" y="-20%" width="140%" height="140%">
      <feDropShadow dx="0" dy="16" stdDeviation="20" flood-color="#1b2a27" flood-opacity=".16"/>
    </filter>
  </defs>
  <rect width="1200" height="675" fill="url(#bg)"/>
  <g transform="translate(70 76)" filter="url(#shadow)">
    <rect width="1060" height="520" rx="18" fill="#fff" stroke="#d8e2df"/>
  </g>
  <g fill="none" stroke-linecap="round" stroke-linejoin="round">
    <path d="M142 178c76-48 145-24 194 0 54 26 115 25 167-9" stroke="#0f766e" stroke-width="18" opacity=".18"/>
    <path d="M142 178c76-48 145-24 194 0 54 26 115 25 167-9" stroke="#0f766e" stroke-width="6"/>
    <path d="M706 508c71-39 132-26 178-3 50 24 105 18 160-15" stroke="#d85645" stroke-width="18" opacity=".15"/>
    <path d="M706 508c71-39 132-26 178-3 50 24 105 18 160-15" stroke="#d85645" stroke-width="6"/>
  </g>
  <g font-family="Inter, Arial, sans-serif">
    <text x="104" y="126" fill="#0a4f4b" font-size="25" font-weight="800">Vessel-Structure Composite Domain</text>
    <text x="668" y="126" fill="#0a4f4b" font-size="25" font-weight="800">Constrained Entropic OT via Schrodinger Bridge</text>
    <g transform="translate(110 236)">
      <rect width="132" height="110" rx="12" fill="#f1f5f4" stroke="#d8e2df"/>
      <text x="66" y="50" text-anchor="middle" fill="#18211f" font-size="19" font-weight="800">CAG</text>
      <text x="66" y="78" text-anchor="middle" fill="#5c6863" font-size="15">source x0</text>
    </g>
    <g transform="translate(274 236)">
      <rect width="132" height="110" rx="12" fill="#10201d"/>
      <path d="M22 76c33-34 58-47 93-42M28 48c28 18 50 28 80 23" stroke="#a7f3d0" stroke-width="5" fill="none"/>
      <text x="66" y="98" text-anchor="middle" fill="#d6f5eb" font-size="15">edited mask</text>
    </g>
    <path d="M440 291h122" stroke="#8aa39b" stroke-width="4" marker-end="url(#arrow)"/>
    <g transform="translate(590 210)">
      <rect width="430" height="194" rx="16" fill="#f6f8f7" stroke="#cbd8d4" stroke-dasharray="12 10"/>
      <text x="215" y="42" text-anchor="middle" fill="#18211f" font-size="22" font-weight="800">Bridge path P*</text>
      <circle cx="82" cy="106" r="31" fill="#0f766e" opacity=".18"/>
      <circle cx="214" cy="106" r="31" fill="#0f766e" opacity=".28"/>
      <circle cx="348" cy="106" r="31" fill="#0f766e" opacity=".42"/>
      <path d="M113 106h70M245 106h72" stroke="#0f766e" stroke-width="5"/>
      <text x="215" y="164" text-anchor="middle" fill="#5c6863" font-size="16">path-level geometric guidance</text>
    </g>
    <g transform="translate(706 454)">
      <rect width="132" height="86" rx="12" fill="#fff" stroke="#d8e2df"/>
      <text x="66" y="38" text-anchor="middle" fill="#18211f" font-size="18" font-weight="800">Output</text>
      <text x="66" y="64" text-anchor="middle" fill="#5c6863" font-size="14">edited CAG</text>
    </g>
    <text x="110" y="544" fill="#357a52" font-size="22" font-weight="800">Pixel-level boundary control</text>
    <text x="110" y="576" fill="#5c6863" font-size="18">Hard geometry constraints with non-target anatomy preservation.</text>
  </g>
  <defs>
    <marker id="arrow" markerWidth="12" markerHeight="12" refX="10" refY="6" orient="auto">
      <path d="M2 2l8 4-8 4z" fill="#8aa39b"/>
    </marker>
  </defs>
</svg>
